<svg xmlns="http://www.w3.org/2000/svg" viewBox="0 0 32 32" width="32" height="32">
  <!-- Background circle -->
  <circle cx="16" cy="16" r="15" fill="#1e40af" stroke="#3b82f6" stroke-width="2"/>
  
  <!-- Urban buildings -->
  <rect x="6" y="18" width="4" height="10" fill="#ffffff" opacity="0.9"/>
  <rect x="11" y="15" width="4" height="13" fill="#ffffff" opacity="0.9"/>
  <rect x="16" y="12" width="4" height="16" fill="#ffffff" opacity="0.9"/>
  <rect x="21" y="16" width="4" height="12" fill="#ffffff" opacity="0.9"/>
  
  <!-- AI/Tech elements - circuit pattern -->
  <circle cx="8" cy="8" r="1.5" fill="#60a5fa"/>
  <circle cx="16" cy="6" r="1.5" fill="#60a5fa"/>
  <circle cx="24" cy="8" r="1.5" fill="#60a5fa"/>
  
  <!-- Connecting lines -->
  <line x1="8" y1="8" x2="16" y2="6" stroke="#60a5fa" stroke-width="1"/>
  <line x1="16" y1="6" x2="24" y2="8" stroke="#60a5fa" stroke-width="1"/>
  
  <!-- Building windows -->
  <rect x="7" y="20" width="1" height="1" fill="#1e40af"/>
  <rect x="9" y="20" width="1" height="1" fill="#1e40af"/>
  <rect x="7" y="22" width="1" height="1" fill="#1e40af"/>
  <rect x="9" y="22" width="1" height="1" fill="#1e40af"/>
  
  <rect x="12" y="17" width="1" height="1" fill="#1e40af"/>
  <rect x="14" y="17" width="1" height="1" fill="#1e40af"/>
  <rect x="12" y="19" width="1" height="1" fill="#1e40af"/>
  <rect x="14" y="19" width="1" height="1" fill="#1e40af"/>
  
  <rect x="17" y="14" width="1" height="1" fill="#1e40af"/>
  <rect x="19" y="14" width="1" height="1" fill="#1e40af"/>
  <rect x="17" y="16" width="1" height="1" fill="#1e40af"/>
  <rect x="19" y="16" width="1" height="1" fill="#1e40af"/>
  
  <rect x="22" y="18" width="1" height="1" fill="#1e40af"/>
  <rect x="24" y="18" width="1" height="1" fill="#1e40af"/>
  <rect x="22" y="20" width="1" height="1" fill="#1e40af"/>
  <rect x="24" y="20" width="1" height="1" fill="#1e40af"/>
</svg> 